<?xml version="1.0" encoding="utf-8"?>
<svg id="master-artboard" viewBox="0 0 480 480" version="1.1" xmlns="http://www.w3.org/2000/svg" x="0px" y="0px" style="enable-background:new 0 0 1400 980;" width="480px" height="480px"><rect id="ee-background" x="0" y="0" width="480" height="480" style="fill: white; fill-opacity: 0; pointer-events: none;"/><path d="M 225.03988647460938 38.867618560791016 C 225.03988647460938 38.867618560791016 44.68520736694336 219.22230529785156 44.685203552246094 219.22230529785156 L 44.685203552246094 39.25829315185547 L 225.03988647460938 38.867618560791016 Z" style="fill: rgb(98, 189, 150); fill-opacity: 1; stroke: rgb(0, 0, 0); stroke-opacity: 1; stroke-width: 0; paint-order: fill;" transform="matrix(0.8322449922561644, 0, 0, 0.8322449922561644, 250.05130725811415, 249.91497319764207)"/><path d="M 194.70103454589844 33.61446762084961 L 14.353132247924805 213.96237182617188 L 15.02607250213623 434.01373291015625 L 194.02809143066406 431.9949035644531 L 194.70103454589844 33.61446762084961 Z" style="fill: rgb(98, 189, 150); fill-opacity: 1; stroke: rgb(0, 0, 0); stroke-opacity: 1; stroke-width: 0; paint-order: stroke;" transform="matrix(0.006649024784564973, 0.9999925494194033, 0.9999925494194033, -0.006649024784564973, 2.0345374082436365, 23.52532958984378)"/><path d="M 31.84956932067871 442.7619323730469 L 204.1221923828125 442.7619323730469 L 204.1221923828125 57.819129943847656 C 204.1221923828125 57.819129943847656 177.86964416503906 57.819129943847656 177.1967010498047 57.819129943847656 C 176.5237579345703 57.819129943847656 32.52251052856445 399.69378662109375 32.52251052856445 399.69378662109375 L 31.84956932067871 442.7619323730469 Z" style="fill: rgb(0, 0, 0); fill-opacity: 0.5; stroke: rgb(0, 0, 0); stroke-opacity: 1; stroke-width: 0; paint-order: fill;" transform="matrix(1, 0, 0, 1, 24.898787199088815, 6.729401826707175)"/><path d="M 194.70103454589844 33.61446762084961 L 14.353132247924805 213.96237182617188 L 15.02607250213623 434.01373291015625 L 194.02809143066406 431.9949035644531 L 194.70103454589844 33.61446762084961 Z" style="fill: rgb(241, 88, 57); fill-opacity: 1; stroke: rgb(0, 0, 0); stroke-opacity: 1; stroke-width: 0; paint-order: stroke;" transform="matrix(1, 0, 0, 1, 21.2258343682974, 1.3781230448163058)"/></svg>